<?xml version="1.0" encoding="UTF-8" standalone="no"?>
<!-- Created with Inkscape (http://www.inkscape.org/) -->

<svg
   xmlns:dc="http://purl.org/dc/elements/1.1/"
   xmlns:cc="http://creativecommons.org/ns#"
   xmlns:rdf="http://www.w3.org/1999/02/22-rdf-syntax-ns#"
   xmlns:svg="http://www.w3.org/2000/svg"
   xmlns="http://www.w3.org/2000/svg"
   xmlns:sodipodi="http://sodipodi.sourceforge.net/DTD/sodipodi-0.dtd"
   xmlns:inkscape="http://www.inkscape.org/namespaces/inkscape"
   width="100"
   height="10"
   viewBox="0 0 26.458333 2.6458332"
   version="1.1"
   id="svg3831"
   inkscape:version="0.92.3 (2405546, 2018-03-11)"
   sodipodi:docname="ascending.svg">
  <defs
     id="defs3825">
    <inkscape:path-effect
       effect="powerstroke"
       id="path-effect1721"
       is_visible="true"
       offset_points="15,0.13229166"
       sort_points="true"
       interpolator_type="CubicBezierJohan"
       interpolator_beta="0.2"
       start_linecap_type="zerowidth"
       linejoin_type="extrp_arc"
       miter_limit="4"
       end_linecap_type="zerowidth" />
    <inkscape:path-effect
       effect="spiro"
       id="path-effect1719"
       is_visible="true" />
    <inkscape:path-effect
       effect="simplify"
       id="path-effect1717"
       is_visible="true"
       steps="1"
       threshold="0.00467626"
       smooth_angles="360"
       helper_size="0"
       simplify_individual_paths="false"
       simplify_just_coalesce="false"
       simplifyindividualpaths="false"
       simplifyJustCoalesce="false" />
    <inkscape:path-effect
       effect="skeletal"
       id="path-effect4744"
       is_visible="true"
       pattern="M 0,5 C 0,2.24 2.24,0 5,0 7.76,0 10,2.24 10,5 10,7.76 7.76,10 5,10 2.24,10 0,7.76 0,5 Z"
       copytype="single_stretched"
       prop_scale="0.26458333"
       scale_y_rel="false"
       spacing="0"
       normal_offset="0"
       tang_offset="0"
       prop_units="false"
       vertical_pattern="false"
       fuse_tolerance="0" />
    <inkscape:path-effect
       effect="spiro"
       id="path-effect4742"
       is_visible="true" />
    <inkscape:path-effect
       effect="simplify"
       id="path-effect4740"
       is_visible="true"
       steps="1"
       threshold="0.002"
       smooth_angles="360"
       helper_size="0"
       simplify_individual_paths="false"
       simplify_just_coalesce="false"
       simplifyindividualpaths="false"
       simplifyJustCoalesce="false" />
  </defs>
  <sodipodi:namedview
     id="base"
     pagecolor="#ffffff"
     bordercolor="#666666"
     borderopacity="1.0"
     inkscape:pageopacity="0.0"
     inkscape:pageshadow="2"
     inkscape:zoom="7.9195959"
     inkscape:cx="57.535692"
     inkscape:cy="38.6906"
     inkscape:document-units="mm"
     inkscape:current-layer="layer1"
     showgrid="false"
     inkscape:window-width="1920"
     inkscape:window-height="1056"
     inkscape:window-x="0"
     inkscape:window-y="0"
     inkscape:window-maximized="1"
     units="px"
     inkscape:snap-intersection-paths="true"
     inkscape:snap-bbox="false"
     inkscape:bbox-paths="false"
     inkscape:bbox-nodes="true"
     inkscape:snap-bbox-edge-midpoints="false"
     inkscape:snap-bbox-midpoints="false"
     inkscape:snap-nodes="false"
     inkscape:snap-object-midpoints="false"
     inkscape:snap-others="false"
     inkscape:snap-grids="false"
     inkscape:snap-to-guides="false" />
  <metadata
     id="metadata3828">
    <rdf:RDF>
      <cc:Work
         rdf:about="">
        <dc:format>image/svg+xml</dc:format>
        <dc:type
           rdf:resource="http://purl.org/dc/dcmitype/StillImage" />
        <dc:title></dc:title>
      </cc:Work>
    </rdf:RDF>
  </metadata>
  <g
     inkscape:label="Calque 1"
     inkscape:groupmode="layer"
     id="layer1"
     transform="translate(0,-294.35416)">
    <path
       style="fill:#000000;fill-rule:nonzero;stroke:none;stroke-width:0.26458332px;stroke-linecap:butt;stroke-linejoin:miter;stroke-opacity:1"
       d="m 0.63476512,295.8641 c 0.47823668,-0.0864 1.05455488,-0.15521 1.70713988,-0.16389 0.5158916,-0.007 1.0788104,0.0295 1.6813552,0.0401 0.5533373,0.01 1.16323,-0.01 1.7165673,1.3e-4 0.4880598,0.008 0.9891781,0.0369 1.5073858,0.0854 0.4712098,0.0441 0.9827027,0.10849 1.4817009,0.0806 0.4815438,-0.0269 0.9598503,-0.14018 1.4431798,-0.15273 0.508249,-0.0134 0.995538,0.0834 1.519765,0.12999 0.725061,0.0629 1.460052,0.0184 2.178374,0.0258 0.622546,0.007 1.21517,0.0504 1.837716,0.0575 0.600635,0.006 1.196353,-0.0235 1.778232,-0.0712 0.594297,-0.0487 1.134756,-0.11072 1.695656,-0.10061 0.716825,0.0121 1.421434,0.13906 2.117668,0.13846 0.626288,2e-5 1.21265,-0.089 1.760428,-0.10259 0.866419,-0.0226 1.693362,0.0994 2.463512,0.0692 0.197204,-0.006 0.371634,-0.0208 0.517637,-0.0383 0,0 -0.01571,-0.13136 -0.01571,-0.13136 0,0 -0.01571,-0.13136 -0.01571,-0.13136 -0.140166,0.0168 -0.307524,0.0333 -0.496877,0.0433 -0.740305,0.0324 -1.563027,-0.0847 -2.460004,-0.0555 -0.567063,0.0191 -1.151891,0.11351 -1.754438,0.11985 -0.669853,0.006 -1.373832,-0.11361 -2.114006,-0.11906 -0.574161,-0.004 -1.129581,0.0668 -1.714536,0.12199 -0.577275,0.0543 -1.16703,0.091 -1.761104,0.092 -0.604664,8.7e-4 -1.233035,-0.0365 -1.837698,-0.0356 -0.731448,-2.1e-4 -1.449345,0.0517 -2.169264,-0.003 -0.509294,-0.0379 -1.017651,-0.12933 -1.532971,-0.10843 -0.4970081,0.0204 -0.9727695,0.14104 -1.4447513,0.17429 -0.491598,0.0346 -0.9962361,-0.0218 -1.4718499,-0.0598 -0.5201514,-0.0416 -1.0227211,-0.064 -1.5119339,-0.0662 -0.599491,-0.003 -1.1735246,0.0217 -1.7167022,0.0172 -0.6018843,-0.005 -1.1655701,-0.0365 -1.6817275,-0.0262 -0.652811,0.0129 -1.228893,0.0841 -1.70703008,0.17051 z"
       id="path1715"
       inkscape:connector-curvature="0"
       inkscape:path-effect="#path-effect1717;#path-effect1719;#path-effect1721"
       inkscape:original-d="m 0.63476512,295.8641 c 0.33577392,-0.17264 1.19496708,0.008 1.40316498,-0.20045 0.04712,-0.0471 0.4034695,0.0668 0.4677217,0.0668 0.1485767,0 1.1646939,-0.0714 1.1693043,-0.0668 0.074653,0.0746 1.3480272,0.15536 1.4365734,0.0668 0.059547,-0.0595 0.2532423,-0.0334 0.3674957,-0.0334 0.075614,0 0.4310727,0.0318 0.5679477,0.10023 0.2055125,0.10276 0.7339809,0 0.968852,0 0.037109,0 0.2102374,-0.0236 0.233861,0 0.023659,0.0237 0.4205666,0.14738 0.5011304,0.0668 0.2302644,-0.23027 0.9663556,0.11818 1.26953,-0.0334 0.2704328,-0.13522 1.6999717,-0.18568 2.0045217,-0.0334 0.176597,0.0883 1.616097,-0.0334 1.804069,-0.0334 0.13604,0 1.550109,0.10688 1.603617,0.13364 0.163577,0.0818 1.956872,-0.0668 2.3052,-0.0668 0.214076,0 0.676764,0.0582 0.801809,-0.0668 0.05761,-0.0576 0.477417,0 0.567947,0 0.314523,0 2.498036,-0.25437 3.0736,0.0334 0.173214,0.0866 1.583508,-0.0467 1.603617,-0.0668 0.05761,-0.0576 0.477418,0 0.567948,0 0.472573,0 0.8774,0.10023 1.302939,0.10023 0.495119,0 1.104762,-0.10023 1.369756,-0.10023" />
  </g>
</svg>
