<?xml version="1.0" encoding="UTF-8" standalone="no"?>
<!-- Created with Inkscape (http://www.inkscape.org/) -->

<svg
   xmlns:dc="http://purl.org/dc/elements/1.1/"
   xmlns:cc="http://creativecommons.org/ns#"
   xmlns:rdf="http://www.w3.org/1999/02/22-rdf-syntax-ns#"
   xmlns:svg="http://www.w3.org/2000/svg"
   xmlns="http://www.w3.org/2000/svg"
   xmlns:sodipodi="http://sodipodi.sourceforge.net/DTD/sodipodi-0.dtd"
   xmlns:inkscape="http://www.inkscape.org/namespaces/inkscape"
   width="210mm"
   height="297mm"
   viewBox="0 0 210 297"
   version="1.1"
   id="svg3831"
   inkscape:version="0.92.3 (2405546, 2018-03-11)"
   sodipodi:docname="dessin.svg">
  <defs
     id="defs3825">
    <inkscape:path-effect
       effect="skeletal"
       id="path-effect4744"
       is_visible="true"
       pattern="M 0,5 C 0,2.24 2.24,0 5,0 7.76,0 10,2.24 10,5 10,7.76 7.76,10 5,10 2.24,10 0,7.76 0,5 Z"
       copytype="single_stretched"
       prop_scale="0.26458333"
       scale_y_rel="false"
       spacing="0"
       normal_offset="0"
       tang_offset="0"
       prop_units="false"
       vertical_pattern="false"
       fuse_tolerance="0" />
    <inkscape:path-effect
       effect="spiro"
       id="path-effect4742"
       is_visible="true" />
    <inkscape:path-effect
       effect="simplify"
       id="path-effect4740"
       is_visible="true"
       steps="1"
       threshold="0.002"
       smooth_angles="360"
       helper_size="0"
       simplify_individual_paths="false"
       simplify_just_coalesce="false"
       simplifyindividualpaths="false"
       simplifyJustCoalesce="false" />
  </defs>
  <sodipodi:namedview
     id="base"
     pagecolor="#ffffff"
     bordercolor="#666666"
     borderopacity="1.0"
     inkscape:pageopacity="0.0"
     inkscape:pageshadow="2"
     inkscape:zoom="0.7"
     inkscape:cx="15.037208"
     inkscape:cy="608.07926"
     inkscape:document-units="mm"
     inkscape:current-layer="layer1"
     showgrid="false"
     inkscape:window-width="1920"
     inkscape:window-height="1056"
     inkscape:window-x="0"
     inkscape:window-y="0"
     inkscape:window-maximized="1" />
  <metadata
     id="metadata3828">
    <rdf:RDF>
      <cc:Work
         rdf:about="">
        <dc:format>image/svg+xml</dc:format>
        <dc:type
           rdf:resource="http://purl.org/dc/dcmitype/StillImage" />
        <dc:title></dc:title>
      </cc:Work>
    </rdf:RDF>
  </metadata>
  <g
     inkscape:label="Calque 1"
     inkscape:groupmode="layer"
     id="layer1">
    <path
       style="fill:#000000;stroke:none;stroke-width:0.26458332px;stroke-linecap:butt;stroke-linejoin:miter;stroke-opacity:1"
       d="m 7.1815475,10.872024 c 0.038328,-0.280838 6.6963745,0.950441 17.6699285,-0.717796 1.430992,-0.2177153 3.344546,-0.5678743 5.024934,-0.7547346 2.316849,-0.2546716 4.640087,-0.278231 7.192803,-0.2359652 1.825793,0.01947 3.920404,0.089346 5.968656,0.7399278 0.755085,0.248409 1.438579,0.553429 2.087169,0.792247 2.417501,0.900843 5.128351,1.165013 8.013627,1.072384 2.740436,-0.09404 5.395239,-0.517675 8.393478,-0.913461 1.946816,-0.259346 3.978198,-0.492462 5.889864,-0.8826066 0.972242,-0.2012004 2.056567,-0.4649472 3.24315,-0.5571385 1.630688,-0.1046807 3.256871,0.2144701 4.887559,0.1097894 1.348264,-0.075323 2.921781,-0.5534368 4.799706,-0.5155111 1.907673,0.095047 3.528583,0.7203848 4.970938,0.9822803 2.627769,0.5095495 5.456569,-0.094292 8.558794,-0.5421152 2.254508,-0.3511464 4.664115,-0.6104414 7.131596,-0.3590139 1.1404,0.1249187 2.2087,0.346729 3.24057,0.5431076 0.32845,0.062509 0.65118,0.1220153 0.96943,0.1745374 2.697,0.4505686 5.58733,0.4686876 8.42796,0.6105466 3.87905,0.17983 7.4193,0.557703 10.86371,0.02753 0,0 10e-6,-10e-7 10e-6,-10e-7 0.84582,-0.125136 1.72523,-0.312062 2.65213,-0.4631268 1.04003,-0.1686145 2.06923,-0.2805571 3.06833,-0.3780106 6.17114,-0.6090067 12.003,-0.7708452 17.6842,-0.115173 2.1537,0.2499847 4.1909,0.6006224 6.15176,0.7651204 3.07086,0.263949 6.25538,0.107644 9.17003,-0.05169 9.3029,-0.5261323 15.38119,-0.8878899 22.12353,0.301036 1.52635,0.268248 2.67538,0.541114 3.95167,0.594383 1.67739,0.081 3.29933,-0.192516 4.76841,-0.162971 1.33436,0.03032 2.75587,0.276228 3.64285,0.420578 1.6043,0.261904 2.66176,0.427319 3.2432,0.561793 0.10551,0.06029 0.19247,0.09206 0.25972,0.106821 0,0 0,0 0,0 -0.10197,0.03718 -0.15105,0.0065 -0.14794,-0.01884 0.003,-0.02529 0.0582,-0.04323 0.16182,0.01926 0,0 0,0 0,0 -0.0682,0.02318 -0.15989,0.06606 -0.27636,0.140161 -0.55223,0.03333 -1.6995,0.0175 -3.32222,-0.08843 -0.87562,-0.05691 -2.35102,-0.19022 -3.55051,-0.134572 -1.35857,0.05919 -2.92135,0.420416 -4.80349,0.433081 -1.41922,0.0013 -2.66821,-0.22479 -4.15351,-0.429305 -6.65977,-0.912953 -12.35483,-0.357298 -21.75911,0.350694 -2.92755,0.225906 -6.19919,0.442345 -9.48075,0.221862 -2.09157,-0.144567 -4.16612,-0.467568 -6.23602,-0.679448 -5.46277,-0.562933 -11.10478,-0.337275 -17.16917,0.299893 -0.98127,0.104244 -1.95702,0.216338 -2.90562,0.377942 -0.84586,0.143308 -1.73432,0.337397 -2.68403,0.485415 0,0 -10e-6,1e-6 -10e-6,1e-6 -3.86631,0.582014 -7.59281,0.230305 -11.37754,0.04617 -2.76987,-0.124594 -5.75722,-0.148344 -8.73217,-0.630063 -0.35051,-0.0574 -0.69483,-0.120245 -1.03414,-0.184535 -1.06572,-0.201928 -2.06258,-0.414075 -3.02788,-0.514302 -2.083314,-0.235148 -4.271819,0.01451 -6.458412,0.332308 -3.010036,0.472852 -6.140408,1.057779 -9.415592,0.492928 -1.796945,-0.327661 -3.280013,-0.947405 -4.601088,-0.971869 -1.296192,-0.07956 -2.809884,0.387054 -4.569644,0.478001 -1.860596,0.08243 -3.473191,-0.253235 -4.857053,-0.156063 -0.901447,0.0473 -1.887353,0.286728 -2.934316,0.483622 -2.057749,0.392442 -4.141925,0.608661 -6.066687,0.837353 -2.962436,0.355604 -5.71275,0.745314 -8.630505,0.803717 -3.082774,0.06812 -6.077546,-0.305506 -8.818739,-1.369328 -0.73383,-0.287675 -1.381594,-0.596592 -1.995825,-0.809857 -1.649683,-0.596083 -3.56758,-0.686507 -5.37063,-0.771978 -2.528361,-0.104708 -4.763311,-0.150868 -6.977291,0.02374 -1.72299,0.13358 -3.385465,0.391215 -4.98571,0.571796 -11.426593,1.2908 -17.8681041,-0.802868 -17.8695705,-0.792123 z"
       id="path4738"
       inkscape:connector-curvature="0"
       inkscape:path-effect="#path-effect4740;#path-effect4742;#path-effect4744"
       inkscape:original-d="m 7.1815475,10.872024 c 4.1362655,-0.616735 16.3218465,1.099493 19.2767855,-0.377977 0.604761,-0.302381 1.663094,0.302381 2.267857,0 0.766893,-0.383446 7.456088,-0.8076693 8.315476,-0.377976 0.779211,0.389606 5.590061,0.676371 5.669643,0.755953 0.08909,0.08909 -0.08909,0.288886 0,0.377976 0.314981,0.31498 1.5749,-0.314981 1.889881,0 0.08909,0.08909 -0.08909,0.288886 0,0.377976 0.247912,0.247913 9.8298,0.377976 11.339285,0.377976 2.865562,0 8.788683,0.330361 10.961309,-0.755952 0.717304,-0.358652 2.856582,0.545205 3.401788,0 0.08909,-0.08909 -0.08909,-0.288887 0,-0.377976 0.881943,-0.8819448 4.40972,0.881944 5.291666,0 0.08909,-0.08909 -0.08909,-0.288887 0,-0.377977 0.100052,-0.100052 0.978289,0 1.133928,0 1.099264,0 3.573843,-0.480935 4.535715,0 0.554228,0.277115 2.647524,0.755953 3.023809,0.755953 2.700811,0 7.141736,0.775858 9.449403,-0.377976 0.860869,-0.430434 2.121474,0.07319 3.023812,-0.377977 0.646821,-0.323411 4.370665,-0.165046 4.535715,0 0.0891,0.08909 -0.0891,0.288887 0,0.377977 0.51941,0.519408 9.99154,-0.106909 11.71726,0.755952 0.73572,0.367858 8.38579,0 9.82738,0 0.35844,0 2.0396,0.228256 2.26786,0 0.0891,-0.08909 -0.0891,-0.288886 0,-0.377976 0.37797,-0.377976 1.88988,0.377976 2.26785,0 0.0891,-0.08909 -0.0891,-0.288887 0,-0.377976 0.22826,-0.228257 1.90942,0 2.26786,0 4.28373,0 8.56746,0 12.85119,0 2.73318,0 8.79776,-0.703801 10.96131,0.377976 0.95278,0.476387 5.84194,0 7.18155,0 5.66964,0 11.33928,0 17.00893,0 0.77558,0 7.85102,-0.08648 7.9375,0 0.0891,0.08909 -0.0891,0.288886 0,0.377976 0.14727,0.147274 1.28124,0 1.5119,0 1.27349,0 5.86615,0.468711 6.80357,0 0.15937,-0.07968 0.21861,-0.298292 0.37798,-0.377976 0.25268,-0.126342 2.8509,-0.172907 3.02381,0 0.0891,0.08909 -0.0891,0.288886 0,0.377976 0.31498,0.31498 1.5749,-0.31498 1.88988,0 0.0891,0.08909 -0.0891,0.288886 0,0.377976 0.13547,0.135474 2.91179,0 1.88988,0" />
  </g>
</svg>
